inDegrees=no
num_controls=7
num_derivatives=13
num_iterations=103
num_multipliers=7
num_parameters=0
num_slacks=7
num_states=26
objective=5.710262
objective_accelerations=0.851969
objective_balance=0.097305
objective_effort=0.470035
objective_height=4.207990
objective_ligament=0.082963
solver_duration=2141.506074
status=Solve_Succeeded
success=true
DataType=double
version=3
OpenSimVersion=4.4-2022-07-23-0e9fedc
endheader
time	/jointset/ground_pelvis/pelvis_tilt/value	/jointset/ground_pelvis/pelvis_tx/value	/jointset/ground_pelvis/pelvis_ty/value	/jointset/hip_l/hip_flexion_l/value	/jointset/hip_l/hip_adduction_l/value	/jointset/hip_l/hip_rotation_l/value	/jointset/back/lumbar_extension/value	/jointset/patellofemoral_l/patellar_flexion_l/value	/jointset/knee_l/knee_flexion_l/value	/jointset/knee_l/knee_adduction_l/value	/jointset/knee_l/knee_rotation_l/value	/jointset/ankle_l/ankle_angle_l/value	/jointset/subtalar_l/subtalar_angle_l/value	/jointset/ground_pelvis/pelvis_tilt/speed	/jointset/ground_pelvis/pelvis_tx/speed	/jointset/ground_pelvis/pelvis_ty/speed	/jointset/hip_l/hip_flexion_l/speed	/jointset/hip_l/hip_adduction_l/speed	/jointset/hip_l/hip_rotation_l/speed	/jointset/back/lumbar_extension/speed	/jointset/patellofemoral_l/patellar_flexion_l/speed	/jointset/knee_l/knee_flexion_l/speed	/jointset/knee_l/knee_adduction_l/speed	/jointset/knee_l/knee_rotation_l/speed	/jointset/ankle_l/ankle_angle_l/speed	/jointset/subtalar_l/subtalar_angle_l/speed	/forceset/tau_hip_flexion_l	/forceset/tau_hip_adduction_l	/forceset/tau_hip_rotation_l	/forceset/tau_knee_flexion_l	/forceset/tau_ankle_angle_l	/forceset/tau_subtalar_angle_l	/forceset/tau_lumbar_extension	lambda_cid13_p0	lambda_cid13_p1	lambda_cid13_p2	lambda_cid13_p3	lambda_cid13_p4	lambda_cid13_p5	lambda_cid14_p0	/jointset/ground_pelvis/pelvis_tilt/accel	/jointset/ground_pelvis/pelvis_tx/accel	/jointset/ground_pelvis/pelvis_ty/accel	/jointset/hip_l/hip_flexion_l/accel	/jointset/hip_l/hip_adduction_l/accel	/jointset/hip_l/hip_rotation_l/accel	/jointset/back/lumbar_extension/accel	/jointset/patellofemoral_l/patellar_flexion_l/accel	/jointset/knee_l/knee_flexion_l/accel	/jointset/knee_l/knee_adduction_l/accel	/jointset/knee_l/knee_rotation_l/accel	/jointset/ankle_l/ankle_angle_l/accel	/jointset/subtalar_l/subtalar_angle_l/accel	gamma_cid13_p0	gamma_cid13_p1	gamma_cid13_p2	gamma_cid13_p3	gamma_cid13_p4	gamma_cid13_p5	gamma_cid14_p0
1	-0.4159796625216415	-0.02164880854576995	0.4570232203433096	2.094394554741317	-0.2375275924038918	0.1028367049152083	-0.43630572637158	1.866958175842706	1.866958175842629	0.1113382427553229	0.1744177556273154	0.4363311575572479	0.1445686191019192	-0.01139729978516636	-0.0001580051046716308	-0.003935677773642107	0.02017848715737308	0.0009137476834452734	0.005086720715025918	-0.0001018999392452064	0.006476137594823853	0.006476137594822471	-0.002500750997100752	-0.0001755436438583226	-0.002126961773771577	0.0004036422797388807	-0.3240300874031529	0.01630347414726476	-0.03465742936719227	-0.4512791320627591	-0.009915733953521093	0.01061153849656219	0.2917182827949772	-52.76837265698557	12.77124937696518	-11.73689251092333	33.67860146729404	-756.5606158598131	-49.06142825224595	-0.03386777158060766	-0.2554886117621568	-0.6321795351475846	2.367000901153769	-5.964441621942887	-0.1386572910132488	-0.9948310846582685	0.01444791467295999	-7.06296703291978	-7.062967032919763	-1.198540315643899	0.007398094326300018	-1.215305959018849	-0.7234145849689391	-3.631436206821958e-09	4.85846917916741e-09	5.039254784226293e-09	1.096312153388926e-08	2.932555478504361e-09	2.183330977806029e-08	-9.257338912819273e-10
1.01	-0.4161058441990635	-0.0216817209549421	0.4571025108852585	2.094296401450604	-0.237525061966172	0.1028409872164419	-0.4363062556243441	1.866669624369881	1.866669624369808	0.1112505092270127	0.1744160150328315	0.4362501361249723	0.1445374372893744	-0.01380222245513909	-0.00639879513037104	0.01982127529472507	-0.03993950455070927	-0.000421439577133795	-0.004240909786082321	-6.616986735956919e-06	-0.06422087636867231	-0.06422087636867441	-0.01505299002541319	-0.0001640261006473126	-0.01401710372722564	-0.006633502000491593	-0.3243134477044394	0.01637054982668291	-0.03459162225532563	-0.4520204104116889	-0.008673451926583222	0.01041050359739887	0.2921272150022171	-52.41508169121854	12.83970308874048	-11.79692574122216	32.97565885977762	-757.4141670318739	-48.99453325276248	-0.03383913382593827	-0.2274695423795928	-0.6161708410702916	2.384164701335441	-6.055029605696476	-0.1330056934902515	-0.9033234620851808	0.006668531077820639	-7.078238116262324	-7.078238116262428	-1.284614373216189	-0.0006671560922965267	-1.166838442440791	-0.6928715156983132	-4.73786046440648e-09	-5.412149371736663e-08	-7.10450812829897e-08	2.809879216551349e-08	-5.801453818482232e-09	-1.877752148765445e-07	1.438420030588424e-08
1.02	-0.4162549701927793	-0.02177626968532973	0.4574201953962241	2.093593157910044	-0.2375362946510585	0.1027516743269651	-0.4363059120385273	1.865673068849781	1.865673068849807	0.1110370435729189	0.1744146504658578	0.4360520192467231	0.1444360826007999	-0.0159861630356302	-0.01248526934776888	0.04374311602965815	-0.1008395626769908	-0.001838876834193496	-0.01363231745709131	7.266778738465181e-05	-0.1351246718600767	-0.1351246718600797	-0.02764717612534533	-0.0001003381738916927	-0.02554605083794594	-0.01363093292662108	-0.3245968080060357	0.01643762550645241	-0.03452581514384451	-0.4527616887605619	-0.007431169899475688	0.01020946869891013	0.2925361472091743	-52.06462462066884	12.90440125157862	-11.8515034569327	32.34676301178504	-758.2857606840241	-48.92775918316319	-0.03385064092283608	-0.2112921938664322	-0.6013163734869422	2.399978434466917	-6.120854905582553	-0.1551072903094861	-1.007586518638436	0.0112482789954924	-7.1043233385011	-7.104323338501133	-1.206929729967795	0.01783217103530175	-1.143066990471291	-0.7154719141485666	8.429710176896558e-09	-1.187977680726174e-07	-1.4245123566603e-07	2.800565272187129e-09	-2.120067058856559e-08	-4.078297034429122e-07	2.832831824152485e-08
1.03	-0.4164245566796217	-0.02193097365208373	0.4579778002807229	2.092277411021843	-0.2375620154495124	0.1025681642093247	-0.4363047826118764	1.863966598744867	1.863966598744803	0.1106975366651979	0.174414074882038	0.4357398865965333	0.1442648959456022	-0.01786262048740207	-0.01843555448802486	0.06779366728128952	-0.1624045529342842	-0.003310632902235606	-0.02307435136521273	0.0001533062293680554	-0.2061880614510395	-0.206188061451044	-0.04025407452284051	-1.394734678872903e-05	-0.03687270850381814	-0.02060747804582454	-0.3254140521697151	0.01645553679519639	-0.03435966822207581	-0.4526487240096725	-0.007360865103140665	0.01022568258530966	0.2932584829893095	-52.06251696241188	12.88058025889278	-11.82896140245756	32.15818253593547	-758.8500964202294	-48.97329896888333	-0.03389621026227668	-0.1655401322543777	-0.5888938989329218	2.409957004971835	-6.188527030574835	-0.1439837236135309	-0.9131973389159016	0.006484930791377656	-7.1101621548132	-7.110162154813474	-1.287527743863549	0.004235836824783793	-1.12630370304871	-0.6888530111954484	2.1742933827372e-08	-1.835321680549979e-07	-2.138096535012726e-07	-2.293066057547571e-08	-3.666789967980303e-08	-6.279907834777671e-07	4.225849927653765e-08
1.04	-0.4166108512633073	-0.02214458233316874	0.458776383384632	2.090343173041954	-0.2376026086003855	0.1022900966503511	-0.4363028441400867	1.861548931666959	1.861548931666953	0.1102319692035305	0.1744144018662984	0.4353147196598685	0.1440239223991366	-0.01932778239597127	-0.02426621221396809	0.0919387599116588	-0.2245377809824407	-0.0048133473128322	-0.03254380575398878	0.0002344768311062986	-0.2773640664587708	-0.2773640664587764	-0.05285928688923208	8.017541137130175e-05	-0.04815290810581973	-0.02758831118056945	-0.326231296333998	0.01647344808425693	-0.03419352130068315	-0.4525357592587088	-0.007290560306579849	0.01024189647235012	0.2939808187688616	-52.06324589535861	12.85310996367664	-11.80110158735802	32.04031594339578	-759.4345034154666	-49.01815122568964	-0.03398069638203956	-0.1290330852258702	-0.5773908906243254	2.418886710214542	-6.234502463755364	-0.1612989588203763	-1.013070614769408	0.01135471094638787	-7.126846421854799	-7.126846421854794	-1.206592523747029	0.01937855724669007	-1.133775377696977	-0.7163295172567872	3.348335308444233e-08	-2.43455044147316e-07	-2.827047587768009e-07	-4.594656373544061e-08	-4.994496229183336e-08	-8.240752020626792e-07	5.457180704334098e-08
1.05	-0.4168096472410381	-0.02241583513544465	0.4598167264192738	2.087785279669115	-0.2376583531524197	0.1019171741819412	-0.4363001843968527	1.858419301904713	1.858419301904658	0.1096405330050248	0.1744156701138731	0.4347767435740595	0.1437130840932671	-0.02035007627175007	-0.02995766186396235	0.1161298519886631	-0.2870892862522191	-0.006337739967637755	-0.04203899341757692	0.0002843724861748989	-0.3485448855734725	-0.3485448855734726	-0.0654188965645448	0.0001722134891031176	-0.0594567213932061	-0.03458299687912395	-0.3266642465873599	0.01645403804674362	-0.03392154328965531	-0.4521811074936392	-0.00681459810160453	0.01029704144550969	0.2943965147302913	-51.88671263381094	12.76217397883239	-11.74539562611683	31.71109570454568	-759.4674297081021	-49.11761145958068	-0.03408294441157015	-0.07661927668860857	-0.5610330526999692	2.419208438215327	-6.272726456163316	-0.1482895715265347	-0.9174705782756825	-0.0001579069580014483	-7.111163084719865	-7.111163084719101	-1.279250948435851	0.004039675388274783	-1.13085148244849	-0.6914950847899081	4.517462220421877e-08	-3.032275601180698e-07	-3.51522885534838e-07	-6.887761306141496e-08	-6.315358220138848e-08	-1.019407224977281e-06	6.683458752051277e-08
1.06	-0.4170162245051531	-0.0227432046443239	0.4610989779710418	2.084600420863952	-0.2377293976615667	0.1014493542898132	-0.4362974186770163	1.854578371265631	1.854578371265646	0.1089237795578402	0.1744178433908379	0.4341252959196663	0.1433322075326866	-0.02088403966484083	-0.03548955353463672	0.140320463336855	-0.3499308674249427	-0.007873338731149929	-0.05152329052603094	0.0002556721515307843	-0.4196242418258507	-0.4196242418258456	-0.07792273660032678	0.000261181260886887	-0.07084722180814473	-0.04159596212305806	-0.3270971968411699	0.01643462800953746	-0.03364956527898461	-0.4518264557285064	-0.006338635896440816	0.01035218641927588	0.2948122106912925	-51.71322505522403	12.66771018068437	-11.68448821982668	31.45116646123066	-759.5236851246394	-49.2161879849631	-0.03422148167369655	-0.03136698868817424	-0.5454792947603312	2.418790564452105	-6.292517644344546	-0.1635401805616425	-1.010892503742637	-0.004364486996273249	-7.106553849390192	-7.106553849390225	-1.195438595840813	0.01876449605699429	-1.151112803207364	-0.7199854263326257	5.302310867023148e-08	-3.564977718247937e-07	-4.1365999420536e-07	-8.235007150981089e-08	-7.410351008740143e-08	-1.187444199640511e-06	7.763565708889613e-08
1.07	-0.4172256533062604	-0.02312500193729758	0.4626230858200221	2.080785860462775	-0.237815858255147	0.1008866345214552	-0.4362951908696396	1.850027229419101	1.85002722941908	0.1080824197597503	0.1744208639814684	0.433359376631032	0.1428810700811578	-0.02091261423713099	-0.04083372546549831	0.1644969725306407	-0.4130189236535703	-0.009420464608380074	-0.06101756572996839	0.0001873084338229914	-0.4905804258755	-0.4905804258755067	-0.09033660525846843	0.0003404603264892023	-0.08236237869246077	-0.0486368059201194	-0.3274599286803892	0.01641736020609395	-0.03327644334729668	-0.4514441277875281	-0.005439011136008629	0.01041070681674251	0.2952240947767476	-51.38667900119587	12.53942564728336	-11.6118435828955	30.94373966141366	-759.4808294593538	-49.35249424552153	-0.03437144078763849	0.02477335331881104	-0.5234784503249656	2.41644386787227	-6.322597103825514	-0.1504887183296768	-0.9182066369608862	-0.008459448403311944	-7.086613265778611	-7.086613265780285	-1.262422119904578	0.002289002239128026	-1.155585946357335	-0.6968039176225068	6.066719180359717e-08	-4.09422116283431e-07	-4.754417295733543e-07	-9.531941342216537e-08	-8.493329478067276e-08	-1.354029310035052e-06	8.835897607702477e-08
